<svg width="800" height="600" xmlns="http://www.w3.org/2000/svg">
 <g id="Layer_1">
  <title>Layer 1</title>
  <path d="m326,185c0,-6 0,-13 -3,-19c-5,-10 -14.5802,-21.94687 -25,-26c-13.56976,-5.27841 -30.87317,-6.83163 -48,0c-21.66394,8.6414 -44.72557,28.6331 -65,56c-21.96083,29.64323 -31.46877,62.85504 -32,93c-0.54735,31.05963 20.25699,69.80704 43,90c22.43358,19.91821 48.73584,30.51883 75,32c24.98029,1.40875 47.84189,-8.13974 62,-24c10.52945,-11.79535 15.09937,-24.49155 12,-33c-3.70221,-10.16336 -18.177,-23.66013 -27,-27c-5.68881,-2.15347 -10,-2 -15,-2l-4,0l-7,0l-4,0" id="svg_1" stroke="#000" fill="none"/>
  <path d="m221,299c8,0 30.02466,-1.91245 54,-3c22.06802,-1.00104 43,-5 60,-5c14,0 26.80231,-0.15976 32,3c4.27246,2.59732 3.68353,10.07666 2,22c-2.85156,20.19577 -12.13406,43.95963 -19,67c-7.13965,23.95883 -14,44 -19,62l-1,9l0,4l0,1" id="svg_2" stroke="#000" fill="none"/>
  <path id="svg_4" d="m222.885,239.62035l35.14113,0l10.85888,-33.6131l10.85888,33.6131l35.14112,0l-28.42972,20.7738l10.85944,33.6131l-28.42973,-20.77437l-28.42972,20.77437l10.85944,-33.6131l-28.42973,-20.7738z" stroke="#000" fill="#8B4D4B"/>
 </g>
</svg>